scene generator
version 1

entity mesh "Bolted generator"
  CompoundMesh
    parts
      - position 0.0 0.35 0.0
        solid Box
          shape
            size 1.1 0.7 0.6
      - position 0.0 0.78 0.0
        solid Cylinder
          shape
            height 0.16
            radius 0.22
            sides 16
            top_radius 0.18
      - mirror false false true
        position -0.44 0.66 0.31
        repeat
          - count 5
            step 0.22 0.0 0.0
        rotation 90.0 0.0 0.0
        solid Cylinder
          shape
            capped true
            height 0.03
            radius 0.028
            sides 6
            top_radius 0.028
      - mirror true false false
        position 0.58 0.35 0.0
        rotation 0.0 0.0 90.0
        solid Cylinder
          shape
            height 0.06
            radius 0.13
            sides 12
            top_radius 0.13
