scene bore_deck
version 1

entity mesh "Twelve metres of deck, with a duckboard run"
  CompoundMesh
    parts
      - position 0.0 -0.12 0.0
        solid Box
          shape
            size 4.8 0.24 12.0
      - mirror true false false
        position 2.32 0.05 0.0
        solid Box
          shape
            size 0.16 0.1 12.0
      - mirror true false false
        position 0.75 0.025 0.0
        solid Box
          shape
            size 0.1 0.05 11.8
      - position 0.0 0.062 -5.9
        repeat
          - count 30
            step 0.0 0.0 0.4
        solid Box
          shape
            size 1.7 0.024 0.16
