scene bulkhead_door
version 1

entity mesh "A dogged bulkhead door"
  CompoundMesh
    parts
      - position 0.0 0.0 0.0
        solid Box
          shape
            size 1.5 2.1 0.1
      - mirror false true false
        position 0.0 1.11 0.0
        solid Box
          shape
            size 1.74 0.12 0.16
      - mirror true false false
        position 0.81 0.0 0.0
        solid Box
          shape
            size 0.12 2.34 0.16
      - mirror true false false
        position 0.68 0.6 -0.08
        repeat
          - count 3
            step 0.0 -0.6 0.0
        rotation 0.0 0.0 90.0
        solid Cylinder
          shape
            height 0.26
            radius 0.035
            sides 8
            top_radius 0.035
      - position 0.0 0.0 -0.09
        rotation 90.0 0.0 0.0
        solid Cylinder
          shape
            capped false
            height 0.05
            radius 0.24
            sides 20
            top_radius 0.24
      - position 0.0 0.0 -0.09
        rotation 90.0 0.0 0.0
        solid Cylinder
          shape
            height 0.07
            radius 0.055
            sides 10
            top_radius 0.055
      - mirror true false false
        position 0.12 0.0 -0.09
        solid Box
          shape
            size 0.24 0.035 0.035
      - mirror true false false
        position 0.06 0.104 -0.09
        rotation 0.0 0.0 60.0
        solid Box
          shape
            size 0.24 0.035 0.035
      - mirror true false false
        position 0.06 -0.104 -0.09
        rotation 0.0 0.0 -60.0
        solid Box
          shape
            size 0.24 0.035 0.035
