scene collapse
version 1

entity mesh "Ring sections that have come out of true, and the spoil under them"
  CompoundMesh
    parts
      - position 0.0 1.55 -1.2
        rotation 0.0 0.0 18.0
        solid Arch
          shape
            floor false
            height 1.1
            length 0.34
            segments 14
            width 4.4
      - position -0.35 1.2 0.1
        rotation 6.0 0.0 -31.0
        solid Arch
          shape
            floor false
            height 1.1
            length 0.34
            segments 14
            width 4.2
      - position 0.55 0.75 1.5
        rotation -9.0 0.0 62.0
        solid Arch
          shape
            floor false
            height 1.0
            length 0.3
            segments 12
            width 3.6
      - position 0.0 0.28 0.2
        solid Box
          shape
            size 3.4 0.56 2.9
      - position -1.1 0.72 -0.7
        rotation 12.0 24.0 -8.0
        solid Box
          shape
            size 1.5 0.5 1.2
      - position 0.95 0.66 1.1
        rotation -7.0 -38.0 11.0
        solid Box
          shape
            size 1.3 0.44 1.5
      - position 0.2 0.95 -1.35
        rotation 21.0 12.0 4.0
        solid Box
          shape
            size 0.9 0.34 0.8
