scene cross_passage
version 1

entity mesh "A cross-passage, low and square where the bore is tall and round"
  CompoundMesh
    parts
      - position 1.8 -0.1 0.0
        solid Box
          shape
            size 3.6 0.2 2.6
      - position 1.8 2.125 0.0
        solid Box
          shape
            size 3.6 0.25 2.6
      - mirror false false true
        position 1.8 1.0 1.15
        solid Box
          shape
            size 3.6 2.0 0.3
      - position 0.5 1.955 0.0
        repeat
          - count 4
            step 0.9 0.0 0.0
        solid Box
          shape
            size 0.14 0.09 2.0
      - mirror false false true
        position 0.5 1.0 0.955
        repeat
          - count 4
            step 0.9 0.0 0.0
        solid Box
          shape
            size 0.14 2.0 0.09
