scene duckboards
version 1

entity mesh "A duckboard run: two bearers and a broken line of slats"
  CompoundMesh
    parts
      - mirror true false false
        position 0.75 0.035 -3.1
        solid Box
          shape
            size 0.11 0.07 5.4
      - mirror true false false
        position 0.75 0.035 3.05
        solid Box
          shape
            size 0.11 0.07 5.3
      - position 0.0 0.093 -5.86
        repeat
          - count 6
            step 0.0 0.0 0.38
        solid Box
          shape
            size 1.74 0.046 0.19
      - position 0.02 0.093 -3.44
        repeat
          - count 5
            step 0.0 0.0 0.44
        rotation 0.0 3.0 0.0
        solid Box
          shape
            size 1.62 0.046 0.19
      - position -0.03 0.093 -1.08
        repeat
          - count 7
            step 0.0 0.0 0.4
        solid Box
          shape
            size 1.8 0.046 0.19
      - position 0.0 0.101 1.78
        rotation 0.0 -2.0 1.6
        solid Box
          shape
            size 1.7 0.046 0.19
      - position 0.01 0.093 2.42
        repeat
          - count 5
            step 0.0 0.0 0.42
        solid Box
          shape
            size 1.68 0.046 0.19
      - position -0.02 0.093 4.72
        repeat
          - count 3
            step 0.0 0.0 0.39
        rotation 0.0 4.0 0.0
        solid Box
          shape
            size 1.76 0.046 0.19
