scene key_hooks
version 1

entity mesh "The rail, six hooks and the docket shelf"
  CompoundMesh
    parts
      - position -0.062 0.05 0.0
        solid Box
          shape
            size 0.03 0.028 0.78
      - position -0.078 0.03 -0.3
        repeat
          - count 6
            step 0.0 0.0 0.12
        solid Box
          shape
            size 0.022 0.05 0.014
      - position -0.094 0.008 -0.3
        repeat
          - count 6
            step 0.0 0.0 0.12
        solid Box
          shape
            size 0.03 0.014 0.014
      - position -0.055 -0.17 0.0
        solid Box
          shape
            size 0.012 0.09 0.78
