scene key_board
version 1

entity mesh "The key board: a back plate, a rail, and six hooks with one key left"
  CompoundMesh
    parts
      - position -0.03 0.0 0.0
        solid Box
          shape
            size 0.05 0.46 0.86
      - position -0.062 0.05 0.0
        solid Box
          shape
            size 0.03 0.028 0.78
      - position -0.09 0.028 -0.3
        solid Box
          shape
            size 0.05 0.055 0.018
      - position -0.09 0.028 -0.18
        solid Box
          shape
            size 0.05 0.055 0.018
      - position -0.09 0.028 -0.06
        solid Box
          shape
            size 0.05 0.055 0.018
      - position -0.09 0.028 0.06
        solid Box
          shape
            size 0.05 0.055 0.018
      - position -0.09 0.028 0.18
        solid Box
          shape
            size 0.05 0.055 0.018
      - position -0.09 0.028 0.3
        solid Box
          shape
            size 0.05 0.055 0.018
      - position -0.055 -0.17 0.0
        solid Box
          shape
            size 0.012 0.09 0.78
