scene sign_plate
version 1

entity mesh "An enamel section plate"
  CompoundMesh
    parts
      - position 0.0 0.0 0.0
        solid Box
          shape
            size 0.62 0.44 0.016
      - mirror false true false
        position 0.0 0.21 -0.02
        rotation 24.0 0.0 0.0
        solid Box
          shape
            size 0.62 0.05 0.014
      - mirror true false false
        position 0.3 0.0 -0.02
        rotation 0.0 24.0 0.0
        solid Box
          shape
            size 0.05 0.44 0.014
