scene supply_crate
version 1

entity mesh "A shelter supply crate"
  CompoundMesh
    parts
      - position 0.0 0.0 0.0
        solid Box
          shape
            size 0.86 0.86 0.86
      - mirror false false true
        position 0.0 -0.28 0.45
        repeat
          - count 3
            step 0.0 0.28 0.0
        solid Box
          shape
            size 0.92 0.07 0.05
      - mirror true false true
        position 0.45 0.0 0.45
        solid Box
          shape
            size 0.05 0.9 0.05
      - mirror true false false
        position 0.45 -0.28 0.0
        repeat
          - count 3
            step 0.0 0.28 0.0
        solid Box
          shape
            size 0.05 0.07 0.92
